# xmcd CD database file
#
# Track frame offsets:
#	150
#	20835
#	35507
#	45687
#	62882
#	78052
#	91505
#	104472
#	122217
#	135212
#	149717
#	162972
#	183030
#	195175
#	204897
#	216922
#
# Disc length: 3176 seconds
#
# Revision: 3
# Processed by: cddbd v1.5.2PL0 Copyright (c) Steve Scherf et al.
# Submitted via: CDex 1.51
#
DISCID=d30c6610
DTITLE=Linda McCartney - Wide Prairie
DYEAR=1998
DGENRE=Rock
TTITLE0=Wide Prairie
TTITLE1=New Orleans
TTITLE2=The White Coated Man
TTITLE3=Loves Full Glory
TTITLE4=I Got Up
TTITLE5=The Light Comes From Within
TTITLE6=Mister Sandman
TTITLE7=Seaside Woman
TTITLE8=Oriental Nightfish
TTITLE9=Endless Days
TTITLE10=Poison Ivy
TTITLE11=Cow
TTITLE12=B-Side To Seaside
TTITLE13=Sugartime
TTITLE14=Cook Of The House
TTITLE15=Appaloosa
EXTD=\n YEAR: 1998
EXTT0=
EXTT1=
EXTT2=
EXTT3=
EXTT4=
EXTT5=
EXTT6=
EXTT7=
EXTT8=
EXTT9=
EXTT10=
EXTT11=
EXTT12=
EXTT13=
EXTT14=
EXTT15=
PLAYORDER=
